<?xml version="1.0" standalone="no"?>
<!DOCTYPE svg PUBLIC "-//W3C//DTD SVG 20010904//EN"
 "http://www.w3.org/TR/2001/REC-SVG-20010904/DTD/svg10.dtd">
<svg version="1.0" xmlns="http://www.w3.org/2000/svg"
 width="24.000000pt" height="24.000000pt" viewBox="0 0 24.000000 24.000000"
 preserveAspectRatio="xMidYMid meet">

<g transform="translate(0.000000,24.000000) scale(0.100000,-0.100000)"
fill="#000000" stroke="none">
<path d="M63 225 c-59 -26 -80 -102 -43 -163 11 -18 20 -38 20 -46 0 -17 103
-9 142 10 78 40 74 166 -7 200 -42 17 -71 17 -112 -1z m111 -104 c-19 -32 -42
-39 -61 -20 -9 9 -18 8 -37 -5 -30 -19 -32 -14 -9 25 18 30 41 37 61 17 8 -8
17 -7 34 4 31 21 34 16 12 -21z"/>
</g>
</svg>
